<svg xmlns="http://www.w3.org/2000/svg" xmlns:xlink="http://www.w3.org/1999/xlink" version="1.1" x="0px" y="0px" viewBox="0 0 100 100" enable-background="new 0 0 100 100" xml:space="preserve"><g><path d="M29.81,66.166c3.225-3.742,6.085-6.472,8.503-8.427c-2.62-2.78-4.752-5.866-6.389-9.145   c-2.74,5.261-4.708,10.516-5.683,15.542C27.415,64.678,28.619,65.368,29.81,66.166z"></path><path d="M42.222,58.885c-0.557-0.488-5.636,1.188-13.268,11.895c-3.897,5.446-7.656,11.234-10.05,14.715   c3.137-2.831,8.381-7.316,13.268-11.895C41.289,65.068,42.779,59.373,42.222,58.885z"></path><path d="M23.216,62.47c1.064-5.085,2.934-11.214,5.198-15.795c-6.4-1.561-12.735,3.172-15.821,9.44s-3.717,12.607-2.368,20.681   c0.856-6.47,2.136-10.053,4.847-13.148C17.459,60.925,21.174,61.555,23.216,62.47z"></path><path d="M54.297,67.921c-3.709-1.214-7.277-3.016-10.569-5.413c-1.635,2.69-3.953,5.91-7.161,9.578   c0.948,1.077,1.792,2.182,2.484,3.276C43.942,73.724,49.132,71.233,54.297,67.921z"></path><path d="M41.101,78.142c1.175,1.905,2.287,5.505-0.099,8.228c-2.711,3.094-6.095,4.833-12.397,6.532   c8.182,0.277,14.383-1.182,20.191-5.063c5.808-3.881,9.668-10.783,7.281-16.923C51.833,73.761,46.002,76.42,41.101,78.142z"></path><path d="M86.194,8.58C72.648,9.182,54.512,18.89,45.185,29.535c-4.35,4.964-8.181,10.202-11.281,15.485   c1.998,4.76,5.084,9.16,9.24,12.813c4.37,3.83,9.442,6.368,14.743,7.649c5.056-3.635,10.015-8.061,14.566-13.255   C81.184,42.263,87.376,22.088,86.194,8.58z M70.9,39.268c-3.2,3.651-8.773,4.019-12.362,0.873c-3.651-3.2-4.019-8.773-0.819-12.424   c3.145-3.589,8.719-3.957,12.37-0.757C73.677,30.105,74.045,35.678,70.9,39.268z"></path></g></svg>